# xmcd
#
# Track frame offsets:
#	150
#	9909
#	28580
#	38083
#	49553
#	60952
#	78026
#	90576
#	103757
#	115234
#	135827
#
# Disc length: 1936 seconds
#
# Revision: 0
# Processed by: cddbd v1.5.2PL0 Copyright (c) Steve Scherf et al.
# Submitted via: dBpowerAMP V4.0
#
DISCID=6f078e0b
DTITLE=Lonnie Mack - The Wham of that Memphis Man!
DYEAR=1963
DGENRE=Blues
TTITLE0=Wham!
TTITLE1=Where There's A Will
TTITLE2=The Bounce
TTITLE3=I'll Keep You Happy
TTITLE4=Memphis
TTITLE5=Baby, What's Wrong
TTITLE6=Down and Out
TTITLE7=Satisfied
TTITLE8=Suzie-Q
TTITLE9=Why
TTITLE10=Down In The Dumps
EXTD=
EXTT0=
EXTT1=
EXTT2=
EXTT3=
EXTT4=
EXTT5=
EXTT6=
EXTT7=
EXTT8=
EXTT9=
EXTT10=
PLAYORDER=
